<svg aria-hidden="true" style="position: absolute; width: 0; height: 0; overflow: hidden;" version="1.1" xmlns="http://www.w3.org/2000/svg" xmlns:xlink="http://www.w3.org/1999/xlink">
<defs>

<symbol id="icon-burger-menu" viewBox="0 0 32 32">
<path stroke-width="1.3333" stroke-miterlimit="4" stroke-linecap="round" stroke-linejoin="round" d="M4 8.003h24M4 16.003h24M4 24.003h24"></path>
</symbol>

<symbol id="icon-burger-menu-close" viewBox="0 0 32 32">
<path d="M8.533 24.41l-0.944-0.944 7.467-7.467-7.467-7.467 0.944-0.944 7.467 7.467 7.467-7.467 0.944 0.944-7.467 7.467 7.467 7.467-0.944 0.944-7.467-7.467-7.467 7.467z"></path>
</symbol>

<symbol id="icon-arrow-bottom-left" viewBox="0 0 18 18" fill="none">
  <path d="M3.67745 15.7698L16.4973 15.7698C16.7267 15.7698 16.922 15.8448 17.083 15.9949C17.2433 16.1457 17.323 16.3512 17.3223 16.6113C17.3191 16.8658 17.2445 17.0685 17.0983 17.2194C16.9522 17.3686 16.7491 17.4437 16.489 17.4445L2.15835 17.4445C1.95172 17.4437 1.77416 17.4107 1.62566 17.3455C1.47717 17.2803 1.33928 17.184 1.21201 17.0567C1.08473 16.9295 0.98848 16.7916 0.92327 16.6431C0.858058 16.4946 0.825454 16.3174 0.825454 16.1116L0.824275 1.77969C0.824275 1.5597 0.899308 1.36682 1.04937 1.20104C1.20022 1.03448 1.40332 0.949231 1.65866 0.945302C1.91793 0.945302 2.1226 1.02033 2.27267 1.1704C2.42351 1.32125 2.49894 1.52631 2.49894 1.78558L2.49776 14.5925L16.1449 0.945302C16.3131 0.777168 16.5095 0.693099 16.7342 0.693101C16.9589 0.6931 17.1553 0.777168 17.3234 0.945303C17.4916 1.11344 17.5756 1.30985 17.5756 1.53456C17.5756 1.75926 17.4916 1.95568 17.3234 2.12381L3.67745 15.7698Z" fill="#333735"/>
</symbol>

<symbol id="icon-arrow-right" viewBox="0 0 21 20">
  <path d="M10.5 15.8327L16.3333 9.99935M16.3333 9.99935L10.5 4.16602M16.3333 9.99935H4.66668" stroke-width="1.5" stroke-linecap="round" stroke-linejoin="round"/>
</symbol>

<symbol id="icon-social-instagram" viewBox="0 0 24 24">
  <g clip-path="url(#clip0_69_1058)">
    <path d="M11.9995 8.3065C9.78813 8.3065 8.00536 10.1065 8.00536 12.3008C8.00536 14.4951 9.80528 16.2951 11.9995 16.2951C14.1937 16.2951 15.9936 14.4951 15.9936 12.3008C15.9936 10.1065 14.1937 8.3065 11.9995 8.3065ZM23.9989 12.3008C23.9989 10.6379 23.9989 9.00935 23.9132 7.3465C23.8275 5.4265 23.3818 3.71221 21.9762 2.32364C20.5705 0.917924 18.8734 0.47221 16.9535 0.386495C15.2907 0.300781 13.6622 0.300781 11.9995 0.300781C10.3367 0.300781 8.70818 0.300781 7.0454 0.386495C5.12549 0.47221 3.41128 0.917924 2.02277 2.32364C0.617115 3.72935 0.171421 5.4265 0.0857104 7.3465C-8.3017e-08 9.00935 0 10.6379 0 12.3008C0 13.9636 -8.3017e-08 15.5922 0.0857104 17.2551C0.171421 19.1751 0.617115 20.8894 2.02277 22.2779C3.42842 23.6836 5.12549 24.1294 7.0454 24.2151C8.70818 24.3008 10.3367 24.3008 11.9995 24.3008C13.6622 24.3008 15.2907 24.3008 16.9535 24.2151C18.8734 24.1294 20.5877 23.6836 21.9762 22.2779C23.3818 20.8722 23.8275 19.1751 23.9132 17.2551C24.0161 15.6094 23.9989 13.9636 23.9989 12.3008ZM11.9995 18.4551C8.58819 18.4551 5.84545 15.7122 5.84545 12.3008C5.84545 8.88935 8.58819 6.1465 11.9995 6.1465C15.4107 6.1465 18.1535 8.88935 18.1535 12.3008C18.1535 15.7122 15.4107 18.4551 11.9995 18.4551ZM18.4106 7.32935C17.6221 7.32935 16.9707 6.69507 16.9707 5.88935C16.9707 5.08364 17.6049 4.44935 18.4106 4.44935C19.2163 4.44935 19.8505 5.08364 19.8505 5.88935C19.8549 6.07713 19.8206 6.2638 19.7498 6.43778C19.6791 6.61176 19.5733 6.76935 19.4391 6.90078C19.3077 7.03497 19.1501 7.14072 18.9762 7.21149C18.8022 7.28227 18.6155 7.31655 18.4277 7.31221L18.4106 7.32935Z" fill="#333735"/>
  </g>
  <defs>
    <clipPath id="clip0_69_1058">
      <rect width="24" height="24" fill="white"/>
    </clipPath>
  </defs>
</symbol>

<symbol id="icon-social-facebook" viewBox="0 0 24 24">
  <g clip-path="url(#clip0_69_1061)">
    <path d="M24 12.3309C24 5.69025 18.624 0.300781 12 0.300781C5.376 0.300781 0 5.69025 0 12.3309C0 18.1534 4.128 23.0015 9.6 24.1203V15.9399H7.2V12.3309H9.6V9.32334C9.6 7.00153 11.484 5.11281 13.8 5.11281H16.8V8.72183H14.4C13.74 8.72183 13.2 9.26319 13.2 9.92484V12.3309H16.8V15.9399H13.2V24.3008C19.26 23.6993 24 18.5745 24 12.3309Z" fill="#333735"/>
  </g>
  <defs>
    <clipPath id="clip0_69_1061">
      <rect width="24" height="24" fill="white"/>
    </clipPath>
  </defs>
</symbol>

<symbol id="icon-social-telegram" viewBox="0 0 24 24">
  <g clip-path="url(#clip0_69_1064)">
    <mask id="mask0_69_1064" style="mask-type:luminance" maskUnits="userSpaceOnUse" x="0" y="0" width="24" height="24">
      <path d="M0 0H24V24H0V0Z" fill="white"/>
    </mask>
    <g mask="url(#mask0_69_1064)">
      <path fill-rule="evenodd" clip-rule="evenodd" d="M24 12C24 18.627 18.627 24 12 24C5.373 24 0 18.627 0 12C0 5.373 5.373 0 12 0C18.627 0 24 5.373 24 12ZM12.43 8.859C11.2633 9.34433 8.93067 10.349 5.432 11.873C4.864 12.099 4.56633 12.32 4.539 12.536C4.493 12.902 4.951 13.046 5.573 13.241L5.836 13.325C6.449 13.524 7.273 13.757 7.701 13.766C8.08967 13.774 8.52367 13.614 9.003 13.286C12.271 11.0793 13.958 9.964 14.064 9.94C14.139 9.923 14.243 9.901 14.313 9.964C14.383 10.026 14.376 10.144 14.369 10.176C14.323 10.369 12.529 12.038 11.599 12.902C11.309 13.171 11.104 13.362 11.062 13.406C10.9667 13.5027 10.8727 13.5957 10.78 13.685C10.21 14.233 9.784 14.645 10.804 15.317C11.294 15.64 11.686 15.907 12.077 16.173C12.504 16.464 12.93 16.754 13.482 17.116C13.622 17.2093 13.757 17.3027 13.887 17.396C14.384 17.751 14.831 18.069 15.383 18.019C15.703 17.989 16.035 17.688 16.203 16.789C16.6 14.663 17.382 10.059 17.563 8.161C17.575 8.00343 17.5683 7.84499 17.543 7.689C17.529 7.56275 17.4675 7.44655 17.371 7.364C17.228 7.247 17.006 7.222 16.906 7.224C16.455 7.232 15.763 7.473 12.43 8.859Z" fill="#333735"/>
    </g>
  </g>
  <defs>
    <clipPath id="clip0_69_1064">
      <rect width="24" height="24" fill="white"/>
    </clipPath>
  </defs>
</symbol>

<symbol id="icon-arrow-swiper-right" viewBox="0 0 30 32">
<path stroke-width="2.5263" stroke-miterlimit="4" stroke-linecap="round" stroke-linejoin="round" d="M15.158 29.474l13.474-13.474M28.632 16l-13.474-13.474M28.632 16h-26.947"></path>
</symbol>

<symbol id="icon-boolit" viewBox="0 0 26 32">
<path d="M25.6 16c0 7.069-5.731 12.8-12.8 12.8s-12.8-5.731-12.8-12.8c0-7.069 5.731-12.8 12.8-12.8s12.8 5.731 12.8 12.8z"></path>
</symbol>

<symbol id="icon-tabler-edit" viewBox="0 0 32 32">
<path stroke-width="2.6667" stroke-miterlimit="4" stroke-linecap="round" stroke-linejoin="round" d="M9.333 9.333h-1.333c-0.707 0-1.386 0.281-1.886 0.781s-0.781 1.178-0.781 1.886v12c0 0.707 0.281 1.385 0.781 1.886s1.178 0.781 1.886 0.781h12c0.707 0 1.385-0.281 1.886-0.781s0.781-1.178 0.781-1.886v-1.333"></path>
<path stroke-width="2.6667" stroke-miterlimit="4" stroke-linecap="round" stroke-linejoin="round" d="M21.333 6.667l4 4M27.18 8.78c0.525-0.525 0.82-1.237 0.82-1.98s-0.295-1.455-0.82-1.98c-0.525-0.525-1.237-0.82-1.98-0.82s-1.455 0.295-1.98 0.82l-11.22 11.18v4h4l11.18-11.22z"></path>
</symbol>

<symbol id="icon-upload" viewBox="0 0 30 32">
<path stroke-width="1.5238" stroke-miterlimit="4" stroke-linecap="round" stroke-linejoin="round" d="M5.079 15.999v3.23c0 4.121 0 6.182 1.125 7.577 0.227 0.282 0.484 0.538 0.766 0.766 1.398 1.125 3.457 1.125 7.577 1.125 0.895 0 1.344 0 1.754-0.145 0.085-0.030 0.168-0.065 0.25-0.104 0.394-0.188 0.71-0.504 1.344-1.138l6.014-6.014c0.735-0.734 1.101-1.101 1.295-1.568 0.193-0.467 0.193-0.985 0.193-2.024v-4.245c0-4.789 0-7.183-1.488-8.67s-3.882-1.488-8.67-1.488M16.508 28.062v-0.635c0-3.591 0-5.388 1.116-6.503 1.115-1.116 2.912-1.116 6.503-1.116h0.635"></path>
<path stroke-width="1.5238" stroke-miterlimit="4" stroke-linecap="round" stroke-linejoin="round" d="M12.698 7.11c-0.749-0.771-2.743-3.81-3.81-3.81s-3.060 3.039-3.81 3.81M8.889 4.57v8.889"></path>
</symbol>

<symbol id="icon-delete" viewBox="0 0 32 32">
<path d="M9.6 27.52c-0.704 0-1.306-0.25-1.807-0.751s-0.752-1.104-0.753-1.809v-16.64h-1.28v-2.56h6.4v-1.28h7.68v1.28h6.4v2.56h-1.28v16.64c0 0.704-0.25 1.307-0.751 1.809s-1.104 0.752-1.809 0.751h-12.8zM22.4 8.32h-12.8v16.64h12.8v-16.64zM12.16 22.4h2.56v-11.52h-2.56v11.52zM17.28 22.4h2.56v-11.52h-2.56v11.52z"></path>
</symbol>

<symbol id="icon-replace" viewBox="0 0 32 32">
<path d="M15.53 23.526l-0.637-0.844c-0.112-0.137-0.25-0.206-0.413-0.206s-0.302 0.069-0.413 0.206l-0.695 0.957c-0.121 0.181-0.134 0.364-0.038 0.549s0.245 0.279 0.452 0.279h4.424c0.212 0 0.364-0.093 0.457-0.279s0.078-0.368-0.044-0.549l-1.125-1.459c-0.111-0.138-0.243-0.209-0.397-0.211s-0.286 0.057-0.398 0.179l-1.171 1.377zM11.669 27.52c-0.573 0-1.062-0.201-1.464-0.604s-0.604-0.89-0.604-1.463v-8.666c0-0.572 0.201-1.059 0.604-1.463s0.891-0.604 1.464-0.604h8.664c0.572 0 1.059 0.201 1.463 0.604 0.403 0.403 0.604 0.891 0.604 1.464v8.664c0 0.572-0.201 1.059-0.604 1.463s-0.89 0.604-1.463 0.604h-8.664zM25.206 11.866h-4.43c-0.183 0-0.335-0.061-0.457-0.184s-0.183-0.275-0.183-0.457 0.061-0.334 0.183-0.457c0.122-0.123 0.274-0.184 0.457-0.183h3.022c-0.717-1.472-1.779-2.644-3.187-3.516s-2.945-1.308-4.611-1.308c-1.826 0-3.487 0.501-4.982 1.503s-2.575 2.335-3.238 3.999c-0.102 0.213-0.233 0.344-0.393 0.392s-0.316 0.038-0.467-0.029c-0.151-0.067-0.265-0.185-0.342-0.352s-0.079-0.324-0.006-0.47c0.762-1.909 1.998-3.44 3.709-4.593s3.617-1.729 5.719-1.729c1.897 0 3.646 0.488 5.247 1.464s2.839 2.295 3.713 3.955v-3.5c0-0.182 0.061-0.334 0.183-0.457s0.274-0.184 0.457-0.183c0.183 0.001 0.335 0.062 0.457 0.183s0.183 0.274 0.183 0.457v4.431c0 0.297-0.098 0.544-0.294 0.74s-0.443 0.294-0.74 0.294z"></path>
</symbol>

<symbol id="icon-plus" viewBox="0 0 34 32">
<path d="M26.533 17.329h-8v8h-2.667v-8h-8v-2.667h8v-8h2.667v8h8v2.667z"></path>
</symbol>

<symbol id="icon-present" viewBox="0 0 32 32">
<path d="M14.4 19.2v12.8h-6.4c-1.273 0-2.494-0.506-3.394-1.406s-1.406-2.121-1.406-3.394v-6.4c0-0.424 0.169-0.831 0.469-1.131s0.707-0.469 1.131-0.469h9.6zM27.2 19.2c0.424 0 0.831 0.169 1.131 0.469s0.469 0.707 0.469 1.131v6.4c0 1.273-0.506 2.494-1.406 3.394s-2.121 1.406-3.394 1.406h-6.4v-12.8h9.6zM23.2 0.001c0.945-0 1.874 0.239 2.702 0.694s1.526 1.113 2.032 1.912 0.8 1.712 0.857 2.655c0.057 0.943-0.125 1.885-0.53 2.739h0.539c0.849 0 1.663 0.337 2.263 0.937s0.937 1.414 0.937 2.263v1.6c0 0.849-0.337 1.662-0.937 2.263s-1.414 0.937-2.263 0.937h-11.2v-8h-3.2v8h-11.2c-0.849 0-1.663-0.337-2.263-0.937s-0.937-1.414-0.937-2.263v-1.6c0-0.849 0.337-1.663 0.937-2.263s1.414-0.937 2.263-0.937h0.539c-0.355-0.75-0.54-1.57-0.539-2.4 0-3.093 2.507-5.6 5.573-5.6 2.808-0.048 5.299 1.747 7.010 4.694l0.218 0.389c1.653-3.062 4.096-4.982 6.866-5.080l0.334-0.003zM8.8 3.201c-0.636 0-1.247 0.253-1.697 0.703s-0.703 1.060-0.703 1.697c0 0.636 0.253 1.247 0.703 1.697s1.061 0.703 1.697 0.703h5.029c-1.186-3.048-3.118-4.832-5.029-4.8zM23.173 3.201c-1.888-0.032-3.816 1.754-5.002 4.8h5.029c0.637-0.004 1.245-0.26 1.693-0.713s0.697-1.064 0.693-1.701c-0.004-0.636-0.26-1.245-0.713-1.693s-1.064-0.697-1.701-0.693z"></path>
</symbol>

<symbol id="icon-lacation" viewBox="0 0 24 32">
<path d="M11.828 15.217c-1.038 0-2.033-0.412-2.767-1.146s-1.146-1.729-1.146-2.767 0.412-2.033 1.146-2.767c0.734-0.734 1.729-1.146 2.767-1.146s2.033 0.412 2.767 1.146c0.734 0.734 1.146 1.729 1.146 2.767 0 0.514-0.101 1.023-0.298 1.497s-0.485 0.906-0.848 1.269c-0.363 0.363-0.795 0.652-1.269 0.848s-0.984 0.298-1.497 0.298zM11.828 0.348c-2.906 0-5.693 1.154-7.747 3.209s-3.209 4.842-3.209 7.747c0 8.217 10.957 20.348 10.957 20.348s10.957-12.13 10.957-20.348c0-2.906-1.154-5.693-3.209-7.747s-4.842-3.209-7.747-3.209z"></path>
</symbol>

<symbol id="icon-phone" viewBox="0 0 18 32">
<path d="M0 4.333c0-2.147 1.742-3.889 3.889-3.889h10c2.147 0 3.889 1.742 3.889 3.889v23.333c0 1.031-0.41 2.021-1.139 2.75s-1.719 1.139-2.75 1.139h-10c-1.031 0-2.021-0.41-2.75-1.139s-1.139-1.718-1.139-2.75v-23.333zM6.667 24.889c-0.295 0-0.577 0.117-0.786 0.325s-0.325 0.491-0.325 0.786c0 0.295 0.117 0.577 0.325 0.786s0.491 0.325 0.786 0.325h4.444c0.295 0 0.577-0.117 0.786-0.325s0.325-0.491 0.325-0.786c0-0.295-0.117-0.577-0.325-0.786s-0.491-0.325-0.786-0.325h-4.444z"></path>
</symbol>

<symbol id="icon-reservation" viewBox="0 0 32 32">
<path d="M30.875 4.821l-3.861-3.861c-0.332-0.316-0.773-0.493-1.231-0.493s-0.899 0.177-1.231 0.493l-3.433 3.443h-18.417c-0.554 0-1.084 0.22-1.476 0.611s-0.611 0.922-0.611 1.476v22.956c0 0.553 0.22 1.084 0.611 1.476s0.922 0.611 1.476 0.611h22.957c0.553 0 1.084-0.22 1.476-0.611s0.611-0.922 0.611-1.476v-19.033l3.13-3.13c0.326-0.327 0.509-0.77 0.509-1.231s-0.183-0.905-0.509-1.231zM16.089 19.148l-4.372 0.97 1.043-4.33 9.965-9.986 3.37 3.37-10.007 9.976zM27.223 7.982l-3.37-3.37 1.93-1.93 3.37 3.37-1.93 1.93z"></path>
</symbol>


<symbol id="icon-Vector6" viewBox="0 0 32 32">
<path stroke-width="3.0769" stroke-miterlimit="4" stroke-linecap="round" stroke-linejoin="round" d="M29.466 29.533h-27.849M1.617 29.533v-27.849M1.617 29.533l27.849-27.849"></path>
</symbol>

<symbol id="icon-heart" viewBox="0 0 34 32">
<path d="M16.211 31.632h-0.004l-0.013-0.006-0.038-0.021c-2.825-1.57-5.482-3.433-7.928-5.559-3.896-3.416-8.227-8.538-8.227-14.669 0-5.731 4.417-9.681 9-9.681 3.276 0 6.148 1.725 7.941 4.346 1.794-2.62 4.665-4.346 7.941-4.346 4.582 0 9 3.95 9 9.681 0 6.131-4.328 11.253-8.229 14.667-2.255 1.962-4.689 3.701-7.27 5.193-0.216 0.128-0.435 0.25-0.656 0.366l-0.038 0.021-0.017 0.009c-0.226 0.119-0.476 0.181-0.731 0.181s-0.505-0.062-0.731-0.181z"></path>
</symbol>

</defs>
</svg>
